<?xml version="1.0" encoding="UTF-8"?>
<svg id="Layer_2" xmlns="http://www.w3.org/2000/svg" viewBox="0 0 1053.78 606.42">
  <defs>
    <style>
      .cls-1 {
        fill: #fff;
      }

      .cls-2 {
        fill: #1c75bc;
      }
    </style>
  </defs>
  <g id="Layer_1-2" data-name="Layer_1">
    <g>
      <path class="cls-1" d="M8,606.42c-2.86,0-5.5-1.52-6.93-4-1.43-2.48-1.43-5.52,0-8l131.91-228.48c1.43-2.48,4.07-4,6.93-4s5.5,1.52,6.93,4l131.92,228.48c1.43,2.48,1.43,5.52,0,8-1.43,2.48-4.07,4-6.93,4H8Z"/>
      <polygon class="cls-2" points="139.91 369.94 8 598.42 271.83 598.42 139.91 369.94"/>
      <path class="cls-1" d="M781.95,606.42c-2.86,0-5.5-1.52-6.93-4-1.43-2.48-1.43-5.52,0-8l131.92-228.48c1.43-2.48,4.07-4,6.93-4s5.5,1.52,6.93,4l131.91,228.48c1.43,2.48,1.43,5.52,0,8-1.43,2.48-4.07,4-6.93,4h-263.83Z"/>
      <polygon class="cls-2" points="913.86 369.94 781.95 598.42 1045.78 598.42 913.86 369.94"/>
      <path class="cls-1" d="M356.45,606.42c-2.86,0-5.5-1.52-6.93-4l-170.44-295.21c-1.43-2.48-1.43-5.52,0-8L349.52,4c1.43-2.48,4.07-4,6.93-4h340.88c2.86,0,5.5,1.52,6.93,4l170.44,295.21c1.43,2.48,1.43,5.52,0,8l-170.44,295.21c-1.43,2.48-4.07,4-6.93,4h-340.88ZM526.89,471.07l89.68-116.51-89.68-243.86-89.68,243.86,89.68,116.51Z"/>
      <path class="cls-2" d="M697.33,8h-340.88l-170.44,295.21,170.44,295.21h340.88l170.44-295.21L697.33,8ZM526.89,484.18l-98.71-128.25,98.71-268.42,98.71,268.42-98.71,128.25Z"/>
    </g>
  </g>
</svg>